<svg xmlns="http://www.w3.org/2000/svg" width="335" height="122" viewBox="0 0 335 122">
    <g fill="none" fill-rule="evenodd">
        <g fill="#FA394A" fill-rule="nonzero">
            <g>
                <path d="M137.125 90.246l7.883.144-7.873.352c-2.62.12-5.242.19-7.852.486l-7.83.723c-.652.067-1.304.109-1.952.193l-1.948.268-3.875.536-3.875.535-1.94.271-1.931.352-7.718 1.41c-1.29.21-2.565.503-3.84.789l-3.843.841-3.822.846c-1.272.285-2.53.648-3.794.965-10.109 2.535-20.067 5.638-29.826 9.296-4.875 1.8-9.676 3.784-14.442 5.848-2.35 1.081-4.72 2.113-7.046 3.269-1.174.556-2.323 1.13-3.448 1.719-1.131.574-2.297 1.197-3.319 1.761l-.074.039c-1.227.687-2.727.667-3.936-.052-1.208-.719-1.941-2.028-1.923-3.434.018-1.407.786-2.696 2.013-3.383l.222-.099c1.31-.63 2.5-1.173 3.748-1.712 1.247-.539 2.466-1.057 3.709-1.567 2.466-1.057 4.97-1.959 7.457-2.92 5.01-1.815 10.043-3.523 15.126-5.06 10.142-3.097 20.45-5.618 30.876-7.552 1.3-.243 2.593-.528 3.9-.736l3.917-.613 3.913-.616c1.304-.205 2.607-.423 3.921-.553l7.866-.923 1.966-.23 1.972-.15 3.946-.297 3.941-.292 1.97-.148c.658-.042 1.317-.046 1.976-.07l7.894-.236c2.628-.13 5.263-.04 7.89 0zm-5.53-78.759c3.529 0 8.415 2.174 8.415 4.072l-3.664 9.1 10.723.137c1.765-4.752 3.396-8.824 4.618-11.674.405-1.223 1.765-1.631 3.392-1.631 3.667 0 8.553 2.173 8.553 4.072l-.134.409c-1.356 2.987-2.578 5.974-3.667 9.095 1.836 0 3.526.003 4.988.053h1.19l63.612-3.724.049-.004c1.067-.095 19.498-1.724 39.345-2.476l1.808-.066c9.054-.316 18.3-.437 26.242-.134 26.472 1.01 44.082 20.737 35.846 40.552-9.884 23.781-57.397 30.925-57.397 30.925-3.706 7.246-9.032 13.904-17.796 13.904h-.952c-4.815-.258-8.327-3.23-8.774-7.93-.443-2.056-.003-4.204 1.211-5.921 2.544-3.495 8.451-4.862 17.564-4.09 3.11-7.049 5.115-15.4 6.313-19.702-3.259 6.112-7.74 11.949-11.54 12.22h-1.628c-3.396 0-6.925-.405-8.556-3.258-.677-1.357-1.085-3.122-1.085-5.432.032-2.127.234-4.247.602-6.341-1.423 2.854-3.03 5.612-4.812 8.257-3.656 5.294-7.739 8.961-13.167 11.131-3.678 9.381-9.381 20.784-20.784 20.784h-.95c-5.838-.405-8.962-4.072-8.962-9.233l.12-2.17c1.366-8.553 8.426-11.406 20.783-12.22 1.765-4.752 2.578-7.739 4.206-13.847-3.255 5.974-7.602 11.948-11.403 12.082h-1.761c-3.396 0-6.926-.405-8.42-3.258-.813-1.339-1.084-3.258-1.084-5.566.029-2.053.213-4.1.553-6.126-1.453 2.912-3.098 5.723-4.925 8.416-3.656 5.294-7.739 8.961-13.167 11.131-3.678 9.381-9.38 20.784-20.784 20.784h-.95c-5.838-.405-8.962-4.072-8.962-9.233l.137-2.17c1.367-8.553 8.43-11.406 20.784-12.22 1.764-4.752 2.578-7.739 4.21-13.847-3.263 5.974-7.606 11.948-11.407 12.082h-1.761c-3.393 0-6.926-.405-8.416-3.258-.817-1.339-1.088-3.259-1.088-5.566.036-2.28.258-4.554.662-6.798-2.096 3.906-4.365 7.742-6.637 10.6-1.493 1.901-4.075 5.022-6.654 5.022l-2.307.138c-3.121 0-6.108-.68-7.33-3.396-.818-1.494-1.09-3.53-1.09-6.108-.003-2.14.178-4.275.543-6.383-2.17 3.938-4.343 7.876-6.65 10.726-1.505 1.902-4.21 5.023-6.789 5.023l-2.307.138c-3.124 0-6.112-.68-7.334-3.396-.676-1.494-.948-3.667-.948-6.108.053-2.926.353-5.843.895-8.719-6.813 11.586-12.526 15.873-16.908 17.405-1.54.466-3.143.695-4.752.68h-1.494c-11.522-.405-15.75-7.196-15.75-15.75 0-4.209.952-8.686 2.583-13.033C79.85 40.95 87.047 30.495 96.96 30.495h.542c5.157.124 9.367 2.716 9.367 7.873v.271c-.271 9.642-10.18 21.453-17.515 21.453-1.39.026-2.741-.456-3.8-1.356-.322 1.701-.504 3.426-.543 5.157 0 5.16 1.508 10.455 5.989 11.406l1.493.134c1.007-.019 2.008-.155 2.984-.405 4.674-1.737 11.314-7.433 19.663-24.517 2.057-7.803 4.847-16.12 7.493-23.274-3.121-.138-5.707-.138-7.468-.138-.366.022-.724-.114-.983-.373-.26-.26-.395-.617-.374-.983.05-.727.63-1.307 1.357-1.356l8.419.134c1.764-4.615 3.392-8.553 4.614-11.403.409-1.222 1.765-1.63 3.396-1.63zm133.731 77.667c-9.398-.624-12.597 1.458-13.653 2.923-.969 1.336-.814 2.938-.56 3.953.588 1.331 1.944 2.085 3.758 2.085h.138c4.255 0 7.63-3.843 10.317-8.961zm-88.935-6.112c-11.272.68-15.196 3.396-16.556 8.148-.259.882-.396 1.796-.409 2.716 0 2.177.951 3.938 3.938 3.938 5.158 0 9.913-7.197 13.027-14.802zm45.755 0c-11.272.68-15.2 3.396-16.556 8.148-.258.882-.396 1.796-.409 2.716 0 2.177.951 3.938 3.939 3.938 5.157 0 9.909-7.197 13.026-14.802zm96.703-31.489c1.247-33.845-54.706-26.895-58.51-27.532-.031-.002-.062-.002-.092 0l-93.769 3.709c-1.972 0-4.276-.004-6.904-.106h-.232l-.645-.02c-4.615 12.487-8.553 24.978-11.54 38.149-.271.676-1.628 6.517-1.628 8.962 0 .676.134 1.084.406 1.084 1.638 0 4.343-3.258 5.16-4.48 3.805-5.157 8.162-13.858 11.072-19.896 2.335-8.109 5.33-15.876 6.985-19.343.543-1.085 1.765-1.627 3.396-1.627 3.258 0 7.468 2.054 7.468 4.227l-.138.543c-.599 1.463-3.283 8.762-5.866 16.768l-.315.984c-.21.658-.419 1.319-.625 1.98l-.307.992c-2.186 7.11-4.018 14.118-4.018 17.563 0 1.356.405 2.17 1.085 2.17 1.494-.134 4.08-1.899 7.602-7.602 2.716-4.48 6.119-11.406 9.641-21.315 1.356-4.752 2.99-9.642 4.752-14.528.405-1.218 1.902-1.76 3.664-1.76 3.258 0 7.468 1.764 7.468 3.937l-.134.543c-1.617 4.343-3.382 10.18-5.284 16.697-2.85 9.095-5.971 19.276-9.096 27.829 3.808-2.05 6.796-5.024 9.511-9.096 3.48-4.896 6.479-11.402 10.142-19.48 2.314-7.912 5.21-15.418 6.83-18.807.546-1.085 1.765-1.627 3.393-1.627 3.262 0 7.471 2.053 7.471 4.227l-.137.542c-1.223 2.987-11.135 30.277-11.135 38.287 0 1.357.408 2.17 1.088 2.17 1.494-.134 4.08-1.898 7.602-7.601 2.716-4.481 6.119-11.407 9.641-21.316 1.357-4.752 2.988-9.641 4.749-14.527.409-1.219 1.906-1.761 3.667-1.761 3.24 0 7.468 1.765 7.468 3.938l-.138.542c-1.616 4.344-3.381 10.18-5.283 16.698-2.85 9.095-5.971 19.275-9.096 27.828 3.808-2.05 6.795-5.023 9.511-9.095 3.523-4.925 6.524-11.477 10.216-19.621 2.325-7.789 5.182-15.137 6.77-18.529.543-1.085 1.765-1.494 3.393-1.494 3.124 0 7.334 1.9 7.334 3.939l-.138.676c-.434 1.195-2.28 6.257-4.34 12.422l-.31.933c-3.013 9.09-6.347 20.209-6.347 24.932 0 1.494.27 2.308 1.088 2.308 1.49-.134 4.08-2.037 7.602-7.602 2.723-4.615 5.988-11.406 9.51-21.316 1.495-4.752 2.992-9.637 4.753-14.527.405-1.219 1.899-1.761 3.8-1.761 3.242 0 7.469 1.627 7.469 3.8l-.138.543c-1.627 4.347-3.392 10.318-5.428 16.701-2.568 8.824-6.925 22.946-10.318 31.5-.45 1.091-.93 2.222-1.437 3.356 38.118-6.65 41.289-29.607 41.64-34.993zM47.143.225c12.357 0 29.734 3.801 29.734 18.737v.134c-.133 11.406-8.69 22.119-19.268 25.93 6.661 2.579 9.51 7.33 9.51 12.762 0 3.259-1.088 6.788-2.849 10.452-5.432 10.455-19.145 16.838-30.685 16.838H32.5c-5.566-.137-15.208-3.41-20.91-10.455-.274-.399-.415-.873-.406-1.356 0-.951.543-2.04 1.223-2.04.219-.028.433.079.542.271 5.295 4.21 11.54 6.52 17.786 6.52 9.233 0 18.328-5.012 23.76-16.556 1.627-3.272 2.307-5.85 2.307-7.75 0-4.233-3.147-5.694-6.513-6.788l-.506-.162c-2.198-.69-4.426-1.277-5.88-2.42-2.305 7.331-6.109 19.833-6.109 25.117-.032.686-.543 1.255-1.222 1.36h-1.085c-3.396 0-7.197-.536-7.873-3.523-.12-.627-.165-1.265-.138-1.902 0-10.184 10.434-39.781 13.693-47.256.412-1.089 1.768-1.494 3.258-1.494 3.396 0 8.148 2.036 8.148 4.206l-.134.543-6.792 17.652 1.36.137c4.615 0 10.184-4.086 14.256-9.37 3.121-3.935 5.837-9.504 5.837-14.119 0-4.48-2.578-8.281-9.775-8.961l-4.618-.272c-16.969 0-40.598 7.873-44.12 25.525-.138.814-.543 1.223-1.223 1.223l-.68-.138C3.427 32.257.169 25.468.169 20.037c0-2.163.543-4.2 1.902-5.284C14.425 4.026 29.766.225 45.516.225zm88.252 27.142c-4.754 12.543-8.7 25.377-11.811 38.425-.138.676-1.494 6.517-1.494 8.961 0 .677.137 1.085.405 1.085 1.494 0 4.21-3.258 5.16-4.48 3.53-4.89 7.603-12.883 10.456-18.871 2.036-8.271 5.023-17.233 7.873-24.982-3.544-.138-7.066-.138-10.589-.138zm-34.728 9.914l-.163.01c-3.125 0-7.468 5.702-8.828 7.601-2.032 3.09-3.673 6.42-4.886 9.913.559.381 1.226.572 1.902.542 5.827 0 13.576-11.948 13.576-16.292 0-.814-.27-1.222-.68-1.493-.318-.216-.702-.312-1.084-.272z" transform="translate(-20 -115) translate(20 115)"/>
            </g>
        </g>
    </g>
</svg>
